<svg version="1.1" xmlns="http://www.w3.org/2000/svg" xmlns:xlink="http://www.w3.org/1999/xlink" width="703.6547619047626" height="46.00000000000001"><defs></defs><g transform="translate(0,0)"><g><rect fill="#FFFFFF" stroke="none" x="0" y="0" width="703.6547619047626" height="46.00000000000001"></rect></g><g transform="translate(0,0) matrix(1,0,0,1,203.68630952380917,5.6)"><g><g transform="translate(0,0) scale(4.766351190476203,0.2)"><g><path fill="none" stroke="none" d="M 10 0 L 90 0 Q 100 0 100 10 L 100 90 Q 100 100 90 100 L 10 100 Q 0 100 0 90 L 0 10 Q 0 0 10 0 Z"></path><g transform="scale(0.2098040954258955,5)"><path fill="#cfe2f3" stroke="rgb(0,0,0)" d="M 10 0 L 466.6351190476203 0 Q 476.6351190476203 0 476.6351190476203 10 L 476.6351190476203 10 Q 476.6351190476203 20 466.6351190476203 20 L 10 20 Q 0 20 0 10 L 0 10 Q 0 0 10 0 Z" stroke-opacity="0" stroke-miterlimit="10" stroke-width="0"></path></g></g></g></g></g><g transform="translate(0,0) matrix(1,0,0,1,444.69047619047643,6.000000000000007)"><g><g transform="translate(0,0) scale(2.3896428571428614,0.2)"><g><path fill="none" stroke="none" d="M 10 0 L 90 0 Q 100 0 100 10 L 100 90 Q 100 100 90 100 L 10 100 Q 0 100 0 90 L 0 10 Q 0 0 10 0 Z"></path><g transform="scale(0.41847257510088104,5)"><path fill="#9fc5e8" stroke="rgb(0,0,0)" d="M 10 0 L 228.96428571428615 0 Q 238.96428571428615 0 238.96428571428615 10 L 238.96428571428615 10 Q 238.96428571428615 20 228.96428571428615 20 L 10 20 Q 0 20 0 10 L 0 10 Q 0 0 10 0 Z" stroke-opacity="0" stroke-miterlimit="10" stroke-width="0"></path></g></g></g></g></g><g transform="translate(0,0) matrix(1,0,0,1,325.0833333333333,6.000000000000007)"><g><g transform="translate(0,0) scale(1.200000000000001,0.2)"><g><path fill="none" stroke="none" d="M 10 0 L 90 0 Q 100 0 100 10 L 100 90 Q 100 100 90 100 L 10 100 Q 0 100 0 90 L 0 10 Q 0 0 10 0 Z"></path><g transform="scale(0.8333333333333326,5)"><path fill="#6fa8dc" stroke="rgb(0,0,0)" d="M 10 0 L 110.00000000000011 0 Q 120.00000000000011 0 120.00000000000011 10 L 120.00000000000011 10 Q 120.00000000000011 20 110.00000000000011 20 L 10 20 Q 0 20 0 10 L 0 10 Q 0 0 10 0 Z" stroke-opacity="0" stroke-miterlimit="10" stroke-width="0"></path></g></g></g></g></g><g transform="translate(0,0) matrix(1,0,0,1,265.0833333333332,6.000000000000007)"><g><g transform="translate(0,0) scale(0.6000000000000005,0.2)"><g><path fill="none" stroke="none" d="M 10 0 L 90 0 Q 100 0 100 10 L 100 90 Q 100 100 90 100 L 10 100 Q 0 100 0 90 L 0 10 Q 0 0 10 0 Z"></path><g transform="scale(1.6666666666666652,5)"><path fill="#3d85c6" stroke="rgb(0,0,0)" d="M 10 0 L 50.00000000000006 0 Q 60.00000000000006 0 60.00000000000006 10 L 60.00000000000006 10 Q 60.00000000000006 20 50.00000000000006 20 L 10 20 Q 0 20 0 10 L 0 10 Q 0 0 10 0 Z" stroke-opacity="0" stroke-miterlimit="10" stroke-width="0"></path></g></g></g></g></g><g transform="translate(0,0) matrix(1,0,0,1,235.08333333333326,6.000000000000007)"><g><g transform="translate(0,0) scale(0.30000000000000027,0.2)"><g><path fill="none" stroke="none" d="M 10 0 L 90 0 Q 100 0 100 10 L 100 90 Q 100 100 90 100 L 10 100 Q 0 100 0 90 L 0 10 Q 0 0 10 0 Z"></path><g transform="scale(3.3333333333333304,5)"><path fill="#0b5394" stroke="rgb(0,0,0)" d="M 10 0 L 20.00000000000003 0 Q 30.00000000000003 0 30.00000000000003 10 L 30.00000000000003 10 Q 30.00000000000003 20 20.00000000000003 20 L 10 20 Q 0 20 0 10 L 0 10 Q 0 0 10 0 Z" stroke-opacity="0" stroke-miterlimit="10" stroke-width="0"></path></g></g></g></g></g><g transform="scale(1,1) matrix(1,0,0,1,483.33333333333326,5.999999999999991) translate(2,0)"><text fill="rgb(255, 255, 255)" stroke="none" font-family="Arial" font-size="18px" font-style="normal" font-weight="normal" text-decoration="none" x="68.00000000000011" y="15">1</text></g><g transform="scale(1,1) matrix(1,0,0,1,307.73333333333323,5.999999999999991) translate(2,0)"><text fill="rgb(255, 255, 255)" stroke="none" font-family="Arial" font-size="18px" font-style="normal" font-weight="normal" text-decoration="none" x="68.00000000000011" y="15">2</text></g><g transform="translate(0,0) matrix(1,0,0,1,220.0833333333332,6.000000000000007)"><g><g transform="translate(0,0) scale(0.15000000000000013,0.2)"><g><path fill="none" stroke="none" d="M 10 0 L 90 0 Q 100 0 100 10 L 100 90 Q 100 100 90 100 L 10 100 Q 0 100 0 90 L 0 10 Q 0 0 10 0 Z"></path><g transform="scale(6.666666666666661,5)"><path fill="#073763" stroke="rgb(0,0,0)" d="M 10 0 L 5.000000000000014 0 Q 15.000000000000014 0 15.000000000000014 10 L 15.000000000000014 10 Q 15.000000000000014 20 5.000000000000014 20 L 10 20 Q 0 20 0 10 L 0 10 Q 0 0 10 0 Z" stroke-opacity="0" stroke-miterlimit="10" stroke-width="0"></path></g></g></g></g></g><g transform="translate(0,0) matrix(1,0,0,1,204.33333333333326,5.6)"><g><g transform="translate(0,0) scale(0.15000000000000013,0.2)"><g><path fill="none" stroke="none" d="M 10 0 L 90 0 Q 100 0 100 10 L 100 90 Q 100 100 90 100 L 10 100 Q 0 100 0 90 L 0 10 Q 0 0 10 0 Z"></path><g transform="scale(6.666666666666661,5)"><path fill="#000000" stroke="rgb(0,0,0)" d="M 10 0 L 5.000000000000014 0 Q 15.000000000000014 0 15.000000000000014 10 L 15.000000000000014 10 Q 15.000000000000014 20 5.000000000000014 20 L 10 20 Q 0 20 0 10 L 0 10 Q 0 0 10 0 Z" stroke-opacity="0" stroke-miterlimit="10" stroke-width="0"></path></g></g></g></g></g><g transform="scale(1,1) matrix(1,0,0,1,281.9333333333332,5.860240963855423) translate(2,0)"><text fill="rgb(255, 255, 255)" stroke="none" font-family="Arial" font-size="18px" font-style="normal" font-weight="normal" text-decoration="none" x="2.0000000000000178" y="15">3</text></g><g transform="scale(1,1) matrix(1,0,0,1,239.08333333333331,5.999999999999991) translate(2,0)"><text fill="rgb(255, 255, 255)" stroke="none" font-family="Arial" font-size="18px" font-style="normal" font-weight="normal" text-decoration="none" x="3.0000000000000018" y="15">4</text></g><g transform="scale(1,1) matrix(1,0,0,1,216.47619047619042,5.857142857142852) translate(2,0)"><text fill="rgb(255, 255, 255)" stroke="none" font-family="Arial" font-size="18px" font-style="normal" font-weight="normal" text-decoration="none" x="3.0000000000000018" y="15">5</text></g><g transform="scale(1,1) matrix(1,0,0,1,200.66666666666657,4.500000000000005) translate(2,0)"><text fill="rgb(255, 255, 255)" stroke="none" font-family="Arial" font-size="18px" font-style="normal" font-weight="normal" text-decoration="none" x="0.9499999999999886" y="15">...</text></g></g></svg>